<svg width="303.4800109863281" height="87.99828168193957" viewBox="0 0 370 107.28668460402967" class="css-1j8o68f">
    <defs id="SvgjsDefs1140"></defs>
    <g id="SvgjsG1141" featurekey="hmhgWD-0"
        transform="matrix(1.0058157934074987,0,0,1.0058157934074987,347.77591254117357,-240.87989605424184)"
        fill="#222831">
        <g xmlns="http://www.w3.org/2000/svg">
            <path
                d="M-251.339,331.136c-1.075-0.089-10.585-1.174-13.146-12.066c-1.193-5.07-0.778-11.961-0.771-12.072   c0.029-0.447-0.054-5.186-0.681-7.358c-2.921-10.141-18.188-15.871-36.045-12.331c-3.322,0.658-6.707,1.383-9.986,2.229   c0.362,3.394,0.476,9.926-3.161,14.244c-3.077,3.656-9.528,4.764-10.254,4.879c-0.113,0.016-0.226,0.025-0.337,0.025   c-1.037,0-1.95-0.755-2.117-1.811c-0.186-1.17,0.614-2.271,1.784-2.454c1.539-0.249,5.903-1.341,7.642-3.406   c2.163-2.569,2.434-6.594,2.297-9.446c-0.092-1.936-0.047-16.29-0.047-16.29l-8.137,6.194c-1.875-0.712-3.939-1.112-6.114-1.112   c-2.109,0-4.118,0.373-5.947,1.046l-7.168-6.016v11.439c-1.411,2.03-2.238,4.402-2.238,6.952c0,5.992,4.494,11.062,10.695,12.788   c-0.211,2.04,0.017,4.297,0.793,6.817c1.057,3.43,3.927,6.252,7.952,8.349v15.042c0,2.928,2.374,5.302,5.303,5.302   c2.927,0,5.302-2.374,5.302-5.302v-11.63c5.116,0.897,10.841,1.051,16.618,0.36l-8.898,7.167c-2.28,1.838-2.64,5.175-0.803,7.456   c1.048,1.299,2.583,1.976,4.132,1.976c1.167,0,2.343-0.384,3.323-1.173l15.905-12.812c0.08-0.063,0.138-0.138,0.212-0.207v8.78   c0,2.929,2.375,5.302,5.301,5.302c2.928,0,5.303-2.373,5.303-5.302V322.9c4.018,14.116,16.391,18.641,22.565,19.025   c0.116,0.008,0.229,0.012,0.344,0.012c2.811,0,5.155-2.177,5.361-5.021C-246.146,333.958-248.382,331.379-251.339,331.136z">
            </path>
        </g>
    </g>
    <g id="SvgjsG1142" featurekey="1RRcwp-0"
        transform="matrix(3.887034944880687,0,0,3.887034944880687,114.34412998619467,10.564825275596565)"
        fill="#ffffff">
        <path
            d="M8.1152 20 l-3.2324 -4.2188 l-0.58594 0 l0 4.2188 l-2.8418 0 l0 -15 l2.8418 0 l0 8.8281 l0.52734 0 l3.1543 -3.8672 l3.1836 0 l-3.9551 4.6582 l4.3262 5.3809 l-3.418 0 z M17.646471875 20.19531 c-3.1934 0 -5.498 -1.9434 -5.498 -5.2246 c0 -3.2617 2.2852 -5.2051 5.498 -5.2051 c3.2324 0 5.5078 1.9434 5.5078 5.2051 c0 3.2813 -2.2852 5.2246 -5.5078 5.2246 z M17.617171875 17.959 c1.6309 0 2.7441 -1.1914 2.7441 -2.9883 s-1.1133 -2.9883 -2.7441 -2.9883 c-1.5723 0 -2.6758 1.1914 -2.6758 2.9883 s1.1035 2.9883 2.6758 2.9883 z M29.9218625 20.19531 c-3.1934 0 -5.498 -1.9434 -5.498 -5.2246 c0 -3.2617 2.2852 -5.2051 5.498 -5.2051 c3.2324 0 5.5078 1.9434 5.5078 5.2051 c0 3.2813 -2.2852 5.2246 -5.5078 5.2246 z M29.8925625 17.959 c1.6309 0 2.7441 -1.1914 2.7441 -2.9883 s-1.1133 -2.9883 -2.7441 -2.9883 c-1.5723 0 -2.6758 1.1914 -2.6758 2.9883 s1.1035 2.9883 2.6758 2.9883 z M43.408253125 9.766 c2.6465 0 4.834 1.9434 4.834 5.2344 s-2.1875 5.2344 -4.834 5.2344 c-1.3086 0 -2.4805 -0.50781 -3.0762 -1.4258 l0 6.0742 l-2.8125 0 l0 -14.922 l2.666 0 l0.078125 1.3477 c0.55664 -0.99609 1.7773 -1.543 3.1445 -1.543 z M42.773453125 17.9004 c1.4746 0 2.6563 -1.0742 2.6563 -2.9004 s-1.1816 -2.9004 -2.6563 -2.9004 c-1.5039 0 -2.6758 1.1426 -2.6758 2.9004 s1.1719 2.9004 2.6758 2.9004 z M51.79685 8.457 c-0.88867 0 -1.6309 -0.72266 -1.6309 -1.6211 c0 -0.88867 0.74219 -1.6113 1.6309 -1.6113 c0.86914 0 1.6113 0.72266 1.6113 1.6113 c0 0.89844 -0.74219 1.6211 -1.6113 1.6211 z M50.36135 20 l0 -10.039 l2.832 0 l0 10.039 l-2.832 0 z M62.0312375 9.766 c2.4121 0 3.7402 1.25 3.7402 3.4766 l0 6.7578 l-2.8223 0 l0 -6.1523 c0 -1.3379 -0.83008 -1.8262 -1.7969 -1.8262 c-1.1621 0 -2.2168 0.58594 -2.2363 2.4414 l0 5.5371 l-2.8125 0 l0 -10.039 l2.8125 0 l0 1.1133 c0.70313 -0.83008 1.7871 -1.3086 3.1152 -1.3086 z">
        </path>
    </g>
</svg>